<?xml version="1.0" encoding="utf-8"?>
<!-- Generator: Adobe Illustrator 16.0.0, SVG Export Plug-In . SVG Version: 6.00 Build 0)  -->
<!DOCTYPE svg PUBLIC "-//W3C//DTD SVG 1.1//EN" "http://www.w3.org/Graphics/SVG/1.1/DTD/svg11.dtd">
<svg version="1.1" id="圖層_1" xmlns="http://www.w3.org/2000/svg" xmlns:xlink="http://www.w3.org/1999/xlink" x="0px" y="0px"
	 width="142.34px" height="163px" viewBox="0 0 142.34 163" enable-background="new 0 0 142.34 163" xml:space="preserve">
<g id="icon-nodone" transform="translate(-1019.66 -319)">
	<g id="Group_2439">
		<path id="Path_1574" fill="#E2E5E7" d="M1029.16,319c-5.24,0.016-9.484,4.26-9.5,9.5v133c0.016,5.24,4.26,9.484,9.5,9.5h95
			c5.24-0.016,9.484-4.26,9.5-9.5V357l-38-38H1029.16z"/>
		<path id="Path_1575" fill="#B0B7BD" d="M1105.158,357h28.5l-38-38v28.5C1095.674,352.74,1099.918,356.984,1105.158,357z"/>
		
			<line id="Line_89" fill="none" stroke="#A5A5A5" stroke-width="9" stroke-linecap="round" x1="1035.5" y1="356.5" x2="1084.5" y2="356.5"/>
		
			<line id="Line_90" fill="none" stroke="#A5A5A5" stroke-width="9" stroke-linecap="round" x1="1035.5" y1="385.5" x2="1116.529" y2="385.5"/>
		
			<line id="Line_91" fill="none" stroke="#A5A5A5" stroke-width="9" stroke-linecap="round" x1="1035.5" y1="413.5" x2="1116.529" y2="413.5"/>
		
			<line id="Line_92" fill="none" stroke="#A5A5A5" stroke-width="9" stroke-linecap="round" x1="1035.5" y1="442.5" x2="1116.529" y2="442.5"/>
	</g>
	<g id="Group_2438">
		<circle id="Ellipse_136" fill="#F4AE00" cx="1129" cy="449" r="33"/>
		<g id="Group_2437" transform="translate(233 86)">
			<g id="Group_2436" transform="translate(1257 -531.402) rotate(90)">
				
					<line id="Line_93" fill="none" stroke="#FFFFFF" stroke-width="9" stroke-linecap="round" x1="878.5" y1="360.5" x2="897.047" y2="360.5"/>
			</g>
			<circle id="Ellipse_137" fill="#FFFFFF" cx="896.659" cy="379" r="5"/>
		</g>
	</g>
</g>
</svg>
